HIERARCHY
ROOT root
{
	OFFSET	0	13.1	24.9
	CHANNELS 6  Xposition Yposition Zposition Xrotation Yrotation Zrotation
	JOINT spine_1
	{
		OFFSET	0	9.99999	0
		CHANNELS 3  Xrotation Yrotation Zrotation
		JOINT spine_2
		{
			OFFSET	0	112	-10
			CHANNELS 3  Xrotation Yrotation Zrotation
			JOINT spine_3
			{
				OFFSET	0	206.5	19.3
				CHANNELS 3  Xrotation Yrotation Zrotation
				JOINT spine_4
				{
					OFFSET	0	110.4	14.6
					CHANNELS 3  Xrotation Yrotation Zrotation
					JOINT neck_1
					{
						OFFSET	0	71.8	-50.3
						CHANNELS 3  Xrotation Yrotation Zrotation
						JOINT neck_2
						{
							OFFSET	0	86.2	-25.8
							CHANNELS 3  Xrotation Yrotation Zrotation
							JOINT head_ee
							{
								OFFSET	0	179.8	-8.7
								CHANNELS 3  Xrotation Yrotation Zrotation
								End Site
								{
									OFFSET	1	0	0
								}
							}
						}
					}
					JOINT left_clavicle
					{
						OFFSET	-43.2	22.4	-70.8
						CHANNELS 3  Xrotation Yrotation Zrotation
						JOINT left_shoulder
						{
							OFFSET	-93.9	-5.79999	48.7
							CHANNELS 3  Xrotation Yrotation Zrotation
							JOINT left_elbow
							{
								OFFSET	-291.4	-30.8	15.2
								CHANNELS 3  Xrotation Yrotation Zrotation
								JOINT left_lowarm_twist
								{
									OFFSET	-110.7	-3.89999	13.6
									CHANNELS 3  Xrotation Yrotation Zrotation
									JOINT left_hand
									{
										OFFSET	-110.7	-3.89999	13.6
										CHANNELS 3  Xrotation Yrotation Zrotation
										JOINT left_ee
										{
											OFFSET	-80.8	-5.10001	12.1
											CHANNELS 3  Xrotation Yrotation Zrotation
											End Site
											{
												OFFSET	1	0	0
											}
										}
									}
								}
							}
						}
					}
					JOINT right_clavicle
					{
						OFFSET	43.2	22.4	-70.8
						CHANNELS 3  Xrotation Yrotation Zrotation
						JOINT right_shoulder
						{
							OFFSET	93.9	-5.79999	48.7
							CHANNELS 3  Xrotation Yrotation Zrotation
							JOINT right_elbow
							{
								OFFSET	291.4	-30.8	15.2
								CHANNELS 3  Xrotation Yrotation Zrotation
								JOINT right_lowarm_twist
								{
									OFFSET	110.7	-3.89999	13.6
									CHANNELS 3  Xrotation Yrotation Zrotation
									JOINT right_hand
									{
										OFFSET	110.7	-3.89999	13.6
										CHANNELS 3  Xrotation Yrotation Zrotation
										JOINT right_ee
										{
											OFFSET	80.8	-5.10001	12.1
											CHANNELS 3  Xrotation Yrotation Zrotation
											End Site
											{
												OFFSET	1	0	0
											}
										}
									}
								}
							}
						}
					}
				}
			}
		}
	}
	JOINT left_hip
	{
		OFFSET	-82.8	-127.5	0.300001
		CHANNELS 3  Xrotation Yrotation Zrotation
		JOINT left_knee
		{
			OFFSET	-28.2	-396.7	2.2
			CHANNELS 3  Xrotation Yrotation Zrotation
			JOINT left_ankle
			{
				OFFSET	-11.7	-411.3	35.4
				CHANNELS 3  Xrotation Yrotation Zrotation
				JOINT left_toes
				{
					OFFSET	0	-60	-88.6
					CHANNELS 3  Xrotation Yrotation Zrotation
					JOINT left_foot_ee
					{
						OFFSET	-22.5	-16.5	-42.2
						CHANNELS 3  Xrotation Yrotation Zrotation
						End Site
						{
							OFFSET	1	0	0
						}
					}
				}
			}
		}
	}
	JOINT right_hip
	{
		OFFSET	82.8	-127.5	0.300001
		CHANNELS 3  Xrotation Yrotation Zrotation
		JOINT right_knee
		{
			OFFSET	28.2	-396.7	2.2
			CHANNELS 3  Xrotation Yrotation Zrotation
			JOINT right_ankle
			{
				OFFSET	11.7	-411.3	35.4
				CHANNELS 3  Xrotation Yrotation Zrotation
				JOINT right_toes
				{
					OFFSET	0	-60	-88.6
					CHANNELS 3  Xrotation Yrotation Zrotation
					JOINT right_foot_ee
					{
						OFFSET	22.5	-16.5	-42.2
						CHANNELS 3  Xrotation Yrotation Zrotation
						End Site
						{
							OFFSET	1	0	0
						}
					}
				}
			}
		}
	}
}
MOTION
Frames: 8
Frame Time: 0.02
3417.23 752.811 -665.427 -21.0208 53.4228 8.88908 5.71123 0.0513394 2.31908 5.71421 -0.0962931 2.31765 5.70724 -0.355272 2.29229 5.69991 0.0111101 2.31962 -13.1272 13.45 1.81348 -13.5409 24.4839 5.90133 -0.0 0.0 -0.0 1.51595 10.5186 3.83887 -16.0842 -28.7585 61.1214 0.368721 -10.3514 0.0333987 35.3985 -0.131806 -4.44891 -0.425948 15.4736 3.68686 -0.0 0.0 -0.0 8.00164 -4.34916 -15.4721 -43.6406 44.6282 -48.5086 0.61925 17.054 -0.0928466 41.7162 0.441526 5.19464 -0.261874 4.90101 3.84379 0.0 0.0 0.0 23.5415 -16.3044 17.6748 -26.5091 0.161867 4.02873 24.583 25.3768 -3.46388 9.5272 -0.0 -0.0 -0.0 0.0 -0.0 18.4504 18.5545 12.1248 -25.9228 -0.178517 -3.94029 40.6466 -26.573 5.2842 -30.168 0.0 0.0 0.0 0.0 0.0 
3403.6 754.393 -666.291 -19.0705 55.1268 7.10662 5.30024 -0.106159 2.37519 5.30334 -0.257041 2.36364 5.28991 -0.537189 2.31612 5.28246 -0.164768 2.37185 -13.1943 13.5927 1.6494 -13.6291 24.8643 5.81143 -0.0 0.0 -0.0 1.58782 9.90751 3.91281 -14.8377 -28.6137 60.484 0.417498 -11.6852 0.0427216 35.6568 -0.14284 -4.48002 -0.445447 14.4434 3.1412 -0.0 0.0 -0.0 7.62124 -5.34672 -14.7074 -45.0303 44.1533 -48.0712 0.61369 16.9096 -0.0912226 41.7725 0.444656 5.20113 -0.257638 4.22529 3.5259 0.0 0.0 0.0 21.4765 -17.5111 18.4415 -25.2431 0.196683 3.83756 23.7865 24.7915 -3.35253 8.72758 -0.0 -0.0 -0.0 0.0 -0.0 19.3639 20.7598 11.8121 -26.4639 -0.163184 -4.02191 39.3186 -26.3994 5.14872 -29.3436 0.0 0.0 0.0 0.0 0.0 
3390.99 754.966 -669.437 -18.5654 55.758 6.85812 5.25413 -0.103089 2.24248 5.25689 -0.245538 2.23138 5.24484 -0.511675 2.18578 5.23821 -0.160142 2.23913 -13.1042 13.8037 1.63009 -13.5484 25.2697 5.84315 -0.0 0.0 -0.0 1.74767 9.46053 4.15421 -14.0144 -28.487 59.6877 0.430834 -12.0477 0.0454639 35.9973 -0.157602 -4.52097 -0.559354 14.5299 2.46828 -0.0 0.0 -0.0 7.40538 -5.96227 -14.278 -45.7138 43.5052 -48.3382 0.547798 15.1825 -0.0730072 41.8077 0.446611 5.20518 -0.377756 3.69636 4.1094 0.0 0.0 0.0 19.1554 -17.5689 18.375 -22.0953 0.264865 3.35937 24.9165 24.7115 -3.49205 8.88033 -0.0 -0.0 -0.0 0.0 -0.0 19.9321 21.7284 12.311 -26.9733 -0.148045 -4.09862 38.7944 -26.4143 5.09721 -29.0281 0.0 0.0 0.0 0.0 0.0 
3379.93 756.173 -673.406 -16.8533 56.3056 5.32602 4.91536 -0.193232 2.23522 4.91808 -0.335038 2.21841 4.9029 -0.611929 2.15853 4.8965 -0.263438 2.22804 -13.3905 13.9069 2.06993 -13.8493 25.2254 6.35921 -0.0 0.0 -0.0 1.69473 8.73635 4.00483 -13.0835 -28.8139 59.2908 0.46544 -12.9837 0.0529637 36.1687 -0.165128 -4.54156 -0.571049 14.326 2.31011 -0.0 0.0 -0.0 7.28017 -6.43963 -14.0272 -46.1471 43.1731 -48.4825 0.532024 14.7647 -0.0689317 41.8131 0.446912 5.2058 -0.398004 3.51794 4.16931 0.0 0.0 0.0 19.0314 -18.1482 18.8478 -24.8415 0.206842 3.77677 25.6204 24.5254 -3.5751 8.86446 -0.0 -0.0 -0.0 0.0 -0.0 20.4717 22.8594 12.6241 -27.0148 -0.146781 -4.10487 39.3224 -26.4773 5.15181 -28.5332 0.0 0.0 0.0 0.0 0.0 
3363.05 758.252 -674.854 -16.3593 56.5712 4.37092 4.87062 -0.153475 2.23738 4.87336 -0.295499 2.22309 4.8597 -0.574903 2.16773 4.85321 -0.225425 2.23128 -14.7134 13.9612 2.44745 -15.2668 25.2405 7.05306 -0.0 0.0 -0.0 1.8463 8.78629 4.27438 -11.8522 -28.4518 59.112 0.590169 -16.2966 0.0845017 36.3393 -0.172679 -4.56203 -0.537341 12.8989 1.92216 -0.0 0.0 -0.0 7.16237 -7.32432 -13.7783 -47.5377 42.3892 -48.4176 0.448229 12.519 -0.0491646 41.715 0.441457 5.1945 -0.382245 3.25734 3.95111 0.0 0.0 0.0 17.3374 -18.9851 20.0194 -22.4604 0.258305 3.41502 25.733 24.7907 -3.59429 8.70753 -0.0 -0.0 -0.0 0.0 -0.0 22.1545 24.5485 13.3504 -28.2543 -0.106961 -4.29093 38.3988 -25.825 5.03788 -28.4888 0.0 0.0 0.0 0.0 0.0 
3355.19 758.422 -677.966 -17.5301 56.5342 5.4307 4.97477 0.176748 2.16261 4.97737 0.0388107 2.16947 4.97664 -0.231847 2.1574 4.97017 0.111701 2.16694 -14.6948 13.9376 2.49462 -15.2423 25.1655 7.08332 -0.0 0.0 -0.0 2.08608 8.39211 4.66661 -10.4211 -25.7724 58.3404 0.873747 -23.4041 0.18098 36.5125 -0.180401 -4.58277 -0.515208 9.12129 0.467198 -0.0 0.0 -0.0 7.10362 -7.8927 -13.6502 -47.8164 41.6884 -49.3912 0.398034 11.1544 -0.0388677 41.9221 0.452996 5.21835 -0.369166 2.8129 3.67217 0.0 0.0 0.0 13.7335 -20.385 19.3458 -14.0916 0.319223 2.13353 25.7979 24.9633 -3.60582 7.1186 -0.0 -0.0 -0.0 0.0 -0.0 26.4769 23.5426 12.9792 -28.0979 -0.112209 -4.26749 38.2106 -25.2485 5.00047 -28.5267 0.0 0.0 0.0 0.0 0.0 
3351.16 757.635 -679.125 -19.077 56.3235 6.75553 5.03136 0.257395 2.11244 5.03384 0.122484 2.12453 5.03624 -0.140954 2.12338 5.03 0.196086 2.11901 -15.7383 13.5143 1.62775 -16.3652 24.9551 6.37739 -0.0 0.0 -0.0 2.21862 7.80664 4.85976 -9.39383 -27.029 57.6058 0.925838 -24.6374 0.202186 36.5858 -0.183695 -4.59156 -0.492287 7.26378 -0.17445 -0.0 0.0 -0.0 7.17876 -8.15497 -13.7784 -48.2814 41.8967 -49.5752 0.353646 9.93677 -0.0307434 42.4042 0.480187 5.27371 -0.53803 2.03301 4.47302 0.0 0.0 0.0 13.4342 -21.2179 19.3905 -11.7783 0.303003 1.77899 23.2635 25.3544 -3.29716 7.16054 -0.0 -0.0 -0.0 0.0 -0.0 27.0788 25.8228 13.2933 -20.6561 -0.287262 -3.13969 34.8467 -24.7605 4.63889 -28.6057 0.0 0.0 0.0 0.0 0.0 
3347.45 758.813 -682.006 -20.8776 56.1467 8.84373 5.17256 0.235634 1.90152 5.17456 0.114181 1.91265 5.17656 -0.118323 1.9124 5.1715 0.185134 1.9071 -16.1932 13.8068 2.93081 -16.8253 24.8136 7.80322 -0.0 0.0 -0.0 2.19663 7.28967 4.78433 -9.19115 -27.209 57.1604 1.06747 -27.8688 0.264858 36.7446 -0.190859 -4.61055 -0.446166 7.15182 0.077692 -0.0 0.0 -0.0 7.40923 -8.63628 -14.18 -48.5742 41.4346 -49.4067 0.295762 8.3354 -0.0215519 42.5347 0.487626 5.28865 -0.49404 1.81689 4.08387 0.0 0.0 0.0 13.0183 -21.77 18.3675 -9.41077 0.271597 1.4171 24.7923 25.6976 -3.49666 7.30069 -0.0 -0.0 -0.0 0.0 -0.0 28.6269 26.4188 12.4866 -19.2777 -0.303533 -2.92882 33.6313 -24.7863 4.50898 -28.5141 0.0 0.0 0.0 0.0 0.0 
